#!OML:ASF H:\Male1\Project 1\Capture day 1\Session 1\Male1.ASF
:FULLY-SPECIFIED
:DEGREES
266
root -10.9531 14.9424 1.50544 900.225 -74.3691 -903.978
lowerback 8.57968 1.02255 -2.22347
upperback 6.8034 0.896285 -1.62173
thorax 2.23286 0.258405 -0.492276
lowerneck -7.43768 2.73475 7.36407
upperneck 20.0781 2.35708 -0.867606
head 7.515 1.42123 -1.33064
rclavicle -4.86029e-014 1.86858e-014
rhumerus -39.1094 -3.03362 -86.3509
rradius 38.8
rwrist -20.0759
rhand -15.5743 0.992356
rfingers 7.12502
rthumb 10.6108 -28.7198
lclavicle -4.86029e-014 1.86858e-014
lhumerus -35.2767 6.90306 80.2243
lradius 27.6048
lwrist -0.904148
lhand -20.9982 16.12
lfingers 7.12502
lthumb 5.37608 46.0318
rfemur -11.7427 6.27031 22.4126
rtibia 67.0483
rfoot -13.4188 -17.7868
rtoes -25.876
lfemur -15.3842 -7.31558 -21.4266
ltibia 36.3235
lfoot -18.3715 14.1285
ltoes -8.13342
267
root -11.1921 14.9535 1.51684 898.119 -73.3424 -901.773
lowerback 8.61178 0.914564 -1.76881
upperback 6.83348 0.776571 -1.38906
thorax 2.24931 0.208967 -0.498906
lowerneck -7.25349 2.81387 7.46592
upperneck 20.0032 2.51138 -1.12104
head 7.46799 1.47703 -1.41892
rclavicle 1.10325e-014 -1.78906e-014
rhumerus -39.2466 -2.77989 -86.4858
rradius 38.8605
rwrist -20.0498
rhand -15.4315 1.08731
rfingers 7.12502
rthumb 10.7486 -28.6177
lclavicle 1.10325e-014 -1.78906e-014
lhumerus -34.3691 5.53863 80.9415
lradius 28.9047
lwrist 0.563149
lhand -21.9311 16.261
lfingers 7.12502
lthumb 4.47528 46.1937
rfemur -14.1928 6.91364 23.4145
rtibia 67.3782
rfoot -14.6398 -18.7814
rtoes -24.9887
lfemur -14.5093 -6.39626 -21.1829
ltibia 36.7257
lfoot -19.0628 14.7686
ltoes -11.2214
268
root -11.4469 14.9574 1.55087 898.647 -72.999 -902.363
lowerback 8.54316 0.564935 -1.54734
upperback 6.91293 0.323246 -1.44314
thorax 2.37352 -0.0122703 -0.649554
lowerneck -7.19558 2.88661 7.52104
upperneck 20.0691 2.63542 -1.31093
head 7.4877 1.52146 -1.48052
rclavicle -2.34566e-014 1.70955e-014
rhumerus -39.44 -2.52034 -86.5674
rradius 39.0471
rwrist -20.3051
rhand -15.2706 0.926385
rfingers 7.12502
rthumb 10.9038 -28.7705
lclavicle -2.34566e-014 1.70955e-014
lhumerus -33.5076 4.32292 81.5212
lradius 30.2349
lwrist 1.75359
lhand -22.834 16.2952
lfingers 7.12502
lthumb 3.60343 46.2445
rfemur -16.0875 6.44676 23.1755
rtibia 66.9087
rfoot -16.1205 -18.833
rtoes -25.1417
lfemur -13.5351 -6.19821 -22.0606
ltibia 37.36
lfoot -20.5166 14.8864
ltoes -8.54843
269
root -11.6632 14.9459 1.54143 894.225 -71.324 -897.861
lowerback 8.98388 0.6654 -0.646611
upperback 6.90704 0.493858 -0.895802
thorax 2.12811 0.0925925 -0.602297
lowerneck -7.22867 2.9398 7.43832
upperneck 20.1556 2.71581 -1.3464
head 7.52443 1.54871 -1.47157
rclavicle 3.98563e-014 -9.54166e-015
rhumerus -39.6491 -2.2687 -86.6139
rradius 39.3816
rwrist -20.6669
rhand -14.9999 0.58278
rfingers 7.12502
rthumb 11.1648 -29.1002
lclavicle 3.98563e-014 -9.54166e-015
lhumerus -32.7223 3.34924 81.9431
lradius 31.7385
lwrist 2.83106
lhand -23.4904 16.596
lfingers 7.12502
lthumb 2.96949 46.5551
rfemur -18.2583 8.04648 25.5471
rtibia 65.982
rfoot -17.2536 -19.5957
rtoes -24.7247
lfemur -12.5168 -5.29916 -20.7506
ltibia 37.5836
lfoot -21.9444 14.8612
ltoes -3.11753
270
root -11.8775 14.9172 1.51873 891.567 -69.1288 -895.324
lowerback 9.55056 1.00453 -0.290898
upperback 6.91444 0.943773 -0.44094
thorax 1.82711 0.314178 -0.370303
lowerneck -7.27078 2.9289 7.33435
upperneck 20.2887 2.68959 -1.29588
head 7.57209 1.53041 -1.44052
rclavicle 9.74045e-015 1.59028e-015
rhumerus -39.939 -2.1559 -86.6254
rradius 39.7284
rwrist -20.924
rhand -14.7477 0.488315
rfingers 7.12502
rthumb 11.4081 -29.1813
lclavicle 9.74045e-015 1.59028e-015
lhumerus -32.0755 2.40469 82.2253
lradius 33.4432
lwrist 4.17078
lhand -23.9135 16.7173
lfingers 7.12502
lthumb 2.56094 46.6817
rfemur -20.1542 10.1227 27.5731
rtibia 64.5297
rfoot -18.0419 -20.0665
rtoes -25.3345
lfemur -11.2809 -4.24496 -19.8571
ltibia 37.7379
lfoot -23.3814 15.4157
ltoes -1.05093
271
root -12.1252 14.9122 1.54859 903.244 -70.2341 -906.829
lowerback 8.6905 0.412053 -3.64698
upperback 6.73081 -0.0287259 -1.56736
thorax 2.10847 -0.263183 0.420575
lowerneck -7.20643 2.95741 7.4027
upperneck 20.2473 2.72258 -1.32071
head 7.5503 1.54625 -1.45791
rclavicle 3.79679e-014 -1.27222e-014
rhumerus -40.1416 -2.0856 -86.6378
rradius 39.8978
rwrist -21.0556
rhand -14.7903 0.725349
rfingers 7.12502
rthumb 11.367 -28.9466
lclavicle 3.79679e-014 -1.27222e-014
lhumerus -31.4595 1.39545 82.4337
lradius 35.2522
lwrist 5.96252
lhand -24.3777 16.7389
lfingers 7.12502
lthumb 2.11256 46.7082
rfemur -22.76 7.72092 22.7258
rtibia 62.9951
rfoot -19.4625 -18.3985
rtoes -27.1781
lfemur -10.8163 -5.24885 -25.1085
ltibia 37.4441
lfoot -24.4402 16.0882
ltoes -2.12511
272
root -12.3715 14.8869 1.54749 903.307 -69.0496 -907.086
lowerback 8.74139 0.405969 -3.81149
upperback 6.7742 -0.0589152 -1.59749
thorax 2.12788 -0.288789 0.48299
lowerneck -7.1178 2.96414 7.39589
upperneck 20.1627 2.72427 -1.26678
head 7.50613 1.54802 -1.43997
rclavicle -9.44227e-015 1.66979e-014
rhumerus -40.3329 -1.96613 -86.6667
rradius 39.9952
rwrist -21.1486
rhand -15.0268 0.738708
rfingers 7.12502
rthumb 11.1389 -28.9456
lclavicle -9.44227e-015 1.66979e-014
lhumerus -31.0081 0.467154 82.5354
lradius 37.173
lwrist 7.91257
lhand -24.9244 16.6904
lfingers 7.12502
lthumb 1.58462 46.6642
rfemur -24.0179 8.00665 22.99
rtibia 60.5732
rfoot -20.7317 -17.9739
rtoes -27.414
lfemur -9.38988 -4.88893 -25.9262
ltibia 37.2118
lfoot -25.7463 16.6979
ltoes -0.148689
